<svg width="2070" height="1550" viewBox="0 0 2070 1550" fill="none" xmlns="http://www.w3.org/2000/svg">
<g clip-path="url(#clip0_2347_17936)">
<path d="M269.653 642.381H288.094C314.038 643.829 341.711 648.693 362.387 665.668C378.858 679.089 385.837 701.852 381.752 722.502C378.725 737.763 371.607 751.975 363.97 765.529C348.557 792.238 329.458 816.709 311.41 841.837C308.117 845.916 305.616 851.045 305.875 856.44C306.274 860.653 309.567 864.068 313.386 865.649C320.763 868.672 329.059 868.014 336.835 867.622C361.595 864.991 385.444 857.49 409.02 849.989C410.736 848.939 411.395 850.786 412.054 852.095C387.021 868.672 360.019 882.618 331.693 892.883C316.02 898.145 299.422 903.142 282.692 901.175C273.997 900.245 265.169 895.122 262.402 886.305C258.983 874.991 260.3 862.36 265.17 851.57C272.687 834.734 284.408 820.389 295.338 805.792C313.645 781.84 332.485 758.021 346.847 731.319C351.717 721.977 356.726 710.403 351.983 700.005C347.632 690.404 337.886 684.744 328.666 680.405C312.328 673.163 294.806 668.691 277.556 663.828C274.922 665.582 272.327 667.29 269.786 668.957C275.707 673.562 281.767 678.166 287.701 682.777C265.043 686.85 242.385 691.454 219.987 697.115C186 705.666 152.805 716.981 119.869 728.82C123.035 735.265 126.328 741.71 129.355 748.155C121.851 756.447 114.474 764.738 107.096 772.897C125.054 778.323 144.106 779.045 162.424 774.997C177.97 771.449 192.719 764.081 204.58 753.424C201.28 749.344 197.196 746.055 192.852 743.424C207.341 743.823 220.512 756.314 220.512 771.05H212.084C211.463 767.87 210.582 764.745 209.449 761.709C192.985 776.578 171.777 785.92 149.778 788.285C130.413 790.524 110.655 787.893 92.3413 781.05C93.6585 792.278 94.8892 803.507 96.0334 814.735C85.66 818.833 76.0096 824.562 67.4482 831.704C60.5963 837.624 53.7444 844.461 51.2431 853.411C48.6087 861.304 52.8263 870.253 59.6716 874.466C67.9738 879.595 77.7195 882.093 87.4718 883.409C100.111 885.123 113.023 884.99 125.803 884.073C150.829 882.226 175.729 877.495 200.096 871.569C202.471 870.645 203.655 874.592 201.154 875.25C181.656 885.249 161.373 893.674 140.032 899.069C120.142 904.331 99.5857 906.962 78.9036 907.62C57.962 906.955 35.5701 902.882 18.9659 889.196C6.59248 879.203 0 863.284 0 847.491V846.7C0.399141 829.997 6.05364 813.812 14.2294 799.474C24.8998 779.076 38.0714 760.001 53.6113 743.026C80.4868 713.293 114.214 690.404 150.436 673.827C188.109 656.852 228.296 644.62 269.653 642.381Z" fill="white" fill-opacity="0.7"/>
<path fill-rule="evenodd" clip-rule="evenodd" d="M592.92 650.673C622.776 650.673 652.639 650.626 682.494 650.54C721.893 733.138 761.237 815.762 800.527 898.411H711.08C705.019 883.502 698.919 868.586 692.772 853.676H569.471C562.972 868.586 556.432 883.502 549.84 898.411H469.227C488.192 860.387 507.291 822.496 526.131 784.472C548.396 739.744 570.788 695.268 592.92 650.673ZM633.36 709.872C619.922 739.783 606.485 769.649 593.053 799.474H671.432C658.785 769.609 646.006 739.737 633.36 709.872ZM823.052 650.673H901.164V898.411H823.052V650.673ZM950.172 650.673H1028.42V700.138H950.172V650.673ZM1077.68 650.939C1103.24 650.846 1128.79 650.846 1154.35 650.939V751.583C1169.11 735.531 1189.26 724.083 1211.26 721.851C1231.15 720.004 1252.23 723.293 1269.22 734.342C1276.99 739.212 1283.97 745.663 1289.77 752.766C1301.76 769.476 1308.74 789.867 1309.27 810.39C1309.79 827.499 1307.42 845.126 1299.12 860.254C1293.68 870.258 1286.18 879.002 1277.12 885.914C1261.84 896.697 1243.13 903.148 1224.3 902.624C1206.65 902.491 1188.73 897.621 1174.24 887.355C1166.34 881.834 1159.62 874.991 1153.56 867.49V898.411H1077.68C1077.6 815.872 1077.6 733.385 1077.68 650.939ZM1182.67 762.892C1172.13 765.264 1163.05 772.898 1158.7 782.757C1155.14 791.448 1153.95 800.922 1153.69 810.264C1153.83 822.755 1155.67 836.309 1164.1 846.308C1169.77 853.942 1179.38 857.098 1188.34 858.547C1200.06 860.254 1211.66 854.859 1219.43 846.175C1226.54 839.465 1229.3 829.731 1230.75 820.263C1231.94 809.998 1231.55 799.208 1228.25 789.342C1225.49 780.525 1220.22 772.107 1212.31 767.237C1203.49 761.842 1192.55 760.52 1182.67 762.892ZM1596.3 650.939C1621.86 650.846 1647.42 650.846 1672.97 650.939C1672.97 684.525 1673.02 718.077 1673.1 751.583C1685.75 737.897 1702.35 727.239 1720.92 723.293C1738.18 719.612 1756.62 721.06 1773.21 726.98C1792.05 734.09 1808.13 748.427 1816.69 766.579C1828.02 788.159 1830.39 813.553 1825.91 837.232C1822.88 853.417 1814.58 868.546 1802.72 879.994C1789.29 892.75 1771.24 900.252 1752.93 902.225C1733.96 903.939 1714.07 900.517 1697.74 890.385C1687.86 884.465 1679.42 876.433 1672.18 867.49C1672.31 877.888 1672.31 888.153 1672.31 898.411H1596.04V808.284C1596.43 755.796 1596.3 703.301 1596.3 650.939ZM1701.42 762.892C1690.09 765.264 1680.61 773.947 1676.66 784.737C1673.5 793.288 1672.44 802.238 1672.31 811.314C1672.71 821.705 1673.89 832.495 1679.42 841.571C1682.59 846.441 1686.27 851.178 1691.68 853.676C1699.98 857.756 1709.59 860.121 1718.81 858.022C1729.09 855.65 1737.52 848.149 1743.31 839.598C1750.82 824.994 1751.75 807.626 1747.66 791.84C1745.29 782.498 1740.29 773.555 1732.25 768.028C1723.3 761.981 1711.83 760.393 1701.42 762.892ZM1402.4 723.824C1422.68 719.878 1443.63 719.745 1464.18 720.795C1483.94 722.243 1504.23 725.266 1521.74 734.747C1530.44 739.611 1538.35 746.321 1543.35 754.872C1549.14 764.606 1551.25 776.054 1551.39 787.236V898.145H1479.59V872.885C1468.66 887.355 1451.67 895.913 1434.14 899.195C1414.52 903.016 1393.7 903.54 1374.34 897.753C1364.85 894.724 1355.5 890.252 1348.39 883.017C1341.01 875.649 1337.19 865.383 1336.67 854.992C1335.48 840.255 1340.75 824.994 1351.68 814.596C1365.39 801.574 1384.09 795.66 1402.4 792.365C1427.29 788.159 1452.72 787.628 1477.88 786.97C1477.88 778.419 1475.51 769.343 1469.06 763.423C1463 757.762 1454.3 755.922 1446.13 756.055C1439.15 755.922 1431.64 757.503 1426.51 762.5C1423.21 765.788 1421.11 770.134 1419.79 774.472H1348.52C1350.23 763.423 1354.32 752.5 1361.96 744.082C1372.36 732.634 1387.51 726.854 1402.4 723.824ZM1443.24 820.788C1434.94 822.104 1426.11 824.077 1419.79 829.997C1412.54 836.707 1412.94 850.261 1421.24 855.909C1427.43 859.995 1435.07 860.387 1442.18 860.121C1452.06 859.729 1462.73 857.231 1469.45 849.471C1476.83 841.445 1478.28 829.997 1478.14 819.473C1466.42 819.473 1454.83 819.473 1443.24 820.788ZM1921.81 723.691C1942.62 719.745 1963.96 719.745 1984.91 720.928C2004.01 722.376 2023.5 725.532 2040.5 734.614C2048.8 739.212 2056.31 745.663 2061.44 753.683C2067.11 762.373 2069.61 772.898 2070 783.289V898.145H1998.61C1998.61 889.727 1998.48 881.176 1998.61 872.752C1987.41 887.621 1969.76 896.172 1951.71 899.461C1932.21 903.016 1911.8 903.54 1892.7 897.488C1884.4 894.857 1876.36 891.176 1869.65 885.382C1862.27 879.07 1857.39 869.861 1856.08 860.254C1854.23 848.149 1855.94 835.259 1862.4 824.735C1869.25 813.553 1880.44 805.653 1892.43 800.524C1910.48 792.896 1930.37 790.657 1949.87 788.95C1965.41 787.76 1981.22 787.368 1996.89 786.976C1996.5 778.95 1994.66 770.399 1988.86 764.347C1982.93 758.161 1974.1 756.055 1965.94 756.055C1958.3 755.922 1950.13 757.37 1944.73 763.164C1941.7 766.32 1939.99 770.399 1938.67 774.472H1867.41C1868.98 763.689 1872.94 753.032 1880.31 744.74C1890.72 732.634 1906.53 726.847 1921.81 723.691ZM1961.72 820.914C1953.82 822.104 1945.39 824.077 1939.2 829.472C1931.43 836.05 1931.55 850.255 1940.25 855.916C1946.83 860.254 1955.27 860.52 1962.91 860.121C1972.39 859.463 1982.27 856.573 1988.6 849.205C1995.58 841.046 1997.29 829.864 1996.76 819.473C1985.17 819.473 1973.44 819.606 1961.72 820.914ZM950.172 726.582H1028.42V898.411H950.172V726.582Z" fill="white" fill-opacity="0.7"/>
</g>
<defs>
<clipPath id="clip0_2347_17936">
<rect width="2070" height="268" fill="white" transform="translate(0 641)"/>
</clipPath>
</defs>
</svg>
