<svg width="2070" height="1550" viewBox="0 0 2070 1550" fill="none" xmlns="http://www.w3.org/2000/svg">
<g clip-path="url(#clip0_2347_18361)">
<path fill-rule="evenodd" clip-rule="evenodd" d="M1186.41 779.016C1192.84 726.886 1232.17 706.808 1282.69 706.808C1292.42 706.808 1304.31 708.735 1312.59 710.079C1315.57 710.563 1318.1 710.973 1319.89 711.187L1308.28 764.598C1304.27 762.621 1293.09 759.831 1283.86 759.831C1254.65 759.831 1246.63 778.977 1246.63 808.861V919.634H1185.01C1135.58 1116.84 955.215 1263 741.701 1263C532.978 1263 357.167 1123.27 303.184 932.735C302.756 931.61 298.121 915.603 294.46 896.688C293.798 893.354 292.357 884.286 291.5 877.541C291.76 878.616 291.907 879.181 292.079 879.837C292.241 880.459 292.424 881.163 292.746 882.464C295.239 892.346 300.257 898.477 300.844 899.195L300.886 899.247C313.778 915.913 334.577 918.162 334.577 918.162V918.121C339.874 919.052 345.443 919.595 351.285 919.595H471.44L480.242 865.41H371.733C354.908 865.41 346.105 855.836 346.105 835.526V802.039H452.239L461.042 749.83H346.105V692.429H473.037L481.449 638.244H319.698C387.624 472.703 550.934 356 741.701 356C983.102 356 1170.36 542.78 1186.25 779.016C1186.72 779.016 1185.94 779.055 1186.41 779.016ZM1123.74 919.634H1184.97L1185.01 793.706C1185.01 733.551 1140.96 706.847 1082.5 706.847C1024.04 706.847 979.985 733.513 979.985 793.706V919.634H1041.25V808.861C1041.25 778.977 1052.86 759.831 1082.5 759.831C1112.14 759.831 1123.74 778.977 1123.74 808.861V919.634ZM600.748 923.587C675.646 923.587 720.902 878.976 720.902 802.852H720.864V638.244H659.598V730.683C648.382 718.706 625.947 706.77 595.529 706.77C529.045 706.77 484.605 750.218 484.605 815.178C484.605 877.348 531.459 923.587 600.748 923.587ZM925.848 865.41C910.19 872.58 893.521 877.773 875.488 877.773C847.057 877.773 814.222 864.635 808.225 830.333H966.782C968.379 755.412 929.938 706.808 853.054 706.808C784.973 706.808 740.532 752.234 740.532 812.814C740.532 882.542 790.192 923.587 860.688 923.587C881.915 923.587 903.142 920.796 920.746 913.627L925.848 865.41ZM855.079 749.83C828.634 749.83 811.847 766.962 806.628 789.675H900.727C897.533 764.598 879.89 749.83 855.079 749.83ZM603.593 759.792C569.941 759.792 548.715 782.892 548.715 815.178C548.715 847.077 570.33 870.953 603.593 870.953C636.854 870.953 659.25 848.239 659.25 815.178C659.25 782.118 636.816 759.792 603.593 759.792ZM1421.66 706.808C1353.58 706.808 1309.14 752.234 1309.14 812.814C1309.14 882.542 1358.8 923.587 1429.29 923.587C1450.52 923.587 1471.75 920.796 1489.35 913.627L1494.45 865.41C1478.83 872.581 1462.12 877.775 1444.13 877.775C1415.7 877.775 1382.87 864.635 1376.87 830.333H1535.46C1536.98 755.412 1498.54 706.808 1421.66 706.808ZM1375.19 789.714C1380.41 767 1397.24 749.868 1423.64 749.868C1448.49 749.868 1466.1 764.598 1469.29 789.714H1375.19ZM1717.2 730.683V638.244H1778.5V802.854C1778.5 878.938 1733.24 923.587 1658.34 923.587C1589.06 923.587 1542.2 877.348 1542.2 815.178C1542.2 750.218 1586.64 706.77 1653.13 706.77C1683.54 706.77 1705.98 718.746 1717.2 730.683ZM1606.23 815.217C1606.23 847.077 1627.89 870.992 1661.11 870.992C1694.37 870.992 1716.81 848.278 1716.77 815.217C1716.77 782.156 1694.33 759.831 1661.11 759.831C1627.46 759.831 1606.23 782.931 1606.23 815.217Z" fill="white" fill-opacity="0.7"/>
</g>
<defs>
<clipPath id="clip0_2347_18361">
<rect width="1487" height="907" fill="white" transform="translate(291.5 356)"/>
</clipPath>
</defs>
</svg>
