<svg width="2070" height="1550" viewBox="0 0 2070 1550" fill="none" xmlns="http://www.w3.org/2000/svg">
<path d="M1057.49 641.519L1162.24 852.04L1266.5 641.519H1298.19C1298.3 641.519 1299.72 642.939 1299.72 643.052V906.19H1267.01V713.052L1170.47 906.262C1165.78 905.281 1153.33 908.06 1150.6 904.545L1055.44 713.042V906.18H1022.73V643.042C1022.73 642.929 1024.16 641.509 1024.27 641.509H1057.49V641.519Z" fill="white" fill-opacity="0.7"/>
<path d="M1430.04 641.519L1535.31 853.062L1640.59 641.519H1672.27C1672.38 641.519 1673.8 642.939 1673.8 643.051V906.19H1641.1V713.051L1545.94 904.555C1545.22 906.149 1544 906.078 1542.53 906.251C1539.01 906.66 1526.53 906.926 1524.69 904.555L1429.54 713.051V906.19H1396.83V641.519H1430.05H1430.04Z" fill="white" fill-opacity="0.7"/>
<path d="M303.18 719.183H266.896C232.553 667.986 160.148 653.168 110.107 691.183C52.522 734.951 58.9408 830.539 122.607 865.488C177.646 895.695 251.646 871.292 275.583 813.197H135.557V781.518H315.445C311.765 890.269 181.479 946.81 94.346 885.568C30.9355 840.993 18.9463 745.241 69.1515 686.002C129.404 614.908 244.788 623.717 294.41 701.892C297.64 706.981 302.393 713.511 303.18 719.183Z" fill="white" fill-opacity="0.7"/>
<path d="M1888.23 637.727C1988.6 632.046 2058.26 730.301 2023.38 823.948C1983.8 930.174 1831.92 941.241 1776.85 842.495C1726.99 753.079 1785.78 643.532 1888.22 637.727H1888.23ZM1821.34 848.606C1874.23 902.154 1970.9 881.174 1994.19 809.069C2020.61 727.297 1951.59 652.054 1867.78 673.484C1790.56 693.227 1766.58 793.158 1821.34 848.606Z" fill="white" fill-opacity="0.7"/>
<path d="M362.461 906.19L475.003 643.164C475.504 642.03 476.291 641.734 477.446 641.519C484.376 640.232 494.658 642.531 502.017 641.458L615.94 906.201H580.166L543.923 822.334L433.997 822.906L398.234 906.201H362.461V906.19ZM448.317 789.694H530.084L488.7 693.626L448.317 789.694Z" fill="white" fill-opacity="0.7"/>
<path d="M717.129 641.519V874.511H819.338V906.19H684.422V643.051C684.422 642.939 685.843 641.519 685.955 641.519H717.129Z" fill="white" fill-opacity="0.7"/>
<path d="M925.637 641.519H892.93V906.19H925.637V641.519Z" fill="white" fill-opacity="0.7"/>
<path d="M1001.01 512.995C1011 511.39 1010.32 522.233 1007.94 529.141C1005.69 535.691 986.991 548.393 980.541 552.839C958.944 567.728 915.904 592.069 890.945 573.491C876.574 562.802 894.859 535.364 908.545 538.512C911.376 539.166 912.817 542.017 915.352 542.936C925.43 546.615 948.969 538.604 959.026 534.393C968.838 530.285 993.583 514.17 1001 512.985L1001.01 512.995Z" fill="white" fill-opacity="0.7"/>
</svg>
