<svg width="2070" height="1550" viewBox="0 0 2070 1550" fill="none" xmlns="http://www.w3.org/2000/svg">
<g clip-path="url(#clip0_2337_16197)">
<path d="M1565.7 1146.53C1565.7 1158.1 1557.2 1165.87 1547.14 1165.87V1165.8C1536.79 1165.87 1528.45 1158.1 1528.45 1146.53C1528.45 1134.97 1536.79 1127.22 1547.14 1127.22C1557.2 1127.22 1565.7 1134.97 1565.7 1146.53ZM1573.22 1146.53C1573.22 1130.65 1560.89 1121.44 1547.14 1121.44C1533.3 1121.44 1520.96 1130.65 1520.96 1146.53C1520.96 1162.4 1533.3 1171.66 1547.14 1171.66C1560.89 1171.66 1573.22 1162.4 1573.22 1146.53ZM1542.81 1148.66H1545.6L1552.08 1160.02H1559.19L1552.02 1148.18C1555.72 1147.91 1558.77 1146.15 1558.77 1141.16C1558.77 1134.97 1554.5 1132.98 1547.26 1132.98H1536.79V1160.02H1542.81V1148.66ZM1542.81 1144.08V1137.57H1547C1549.28 1137.57 1552.38 1137.75 1552.38 1140.53C1552.38 1143.55 1550.77 1144.08 1548.09 1144.08H1542.81Z" fill="white" fill-opacity="0.7"/>
<path d="M1397.57 1008.2L1430.09 1097.16H1364.04L1397.57 1008.2ZM1362.74 973.554L1287.79 1163.44H1340.72L1352.57 1129.89H1441.26L1452.48 1163.44H1509.93L1434.43 973.53L1362.74 973.554ZM1212.28 1163.51H1265.97V973.496L1212.27 973.484L1212.28 1163.51ZM839.538 973.484L794.743 1124.08L751.831 973.496L693.899 973.484L755.185 1163.51H832.536L894.316 973.484H839.538ZM1056.57 1014.86H1079.64C1113.12 1014.86 1134.77 1029.89 1134.77 1068.9C1134.77 1107.91 1113.12 1122.95 1079.64 1122.95H1056.57V1014.86ZM1003.33 973.484V1163.51H1090.37C1136.75 1163.51 1151.89 1155.8 1168.26 1138.5C1179.83 1126.36 1187.31 1099.72 1187.31 1070.59C1187.31 1043.87 1180.98 1020.05 1169.94 1005.21C1150.05 978.673 1121.4 973.484 1078.65 973.484H1003.33ZM494.727 973.22V1163.51H548.871V1019.02L590.825 1019.03C604.716 1019.03 614.619 1022.5 621.308 1029.64C629.793 1038.68 633.257 1053.27 633.257 1079.95V1163.51H685.724V1058.37C685.724 983.337 637.897 973.22 591.101 973.22H494.727ZM916.913 973.484L916.935 1163.51H970.601V973.484H916.913Z" fill="white" fill-opacity="0.7"/>
<path d="M639.026 595.121C639.026 595.121 708.082 493.234 845.964 482.697V445.729C693.242 457.994 560.992 587.342 560.992 587.342C560.992 587.342 635.896 803.882 845.964 823.708V784.417C691.803 765.021 639.026 595.121 639.026 595.121ZM845.964 706.275V742.258C729.455 721.486 697.115 600.371 697.115 600.371C697.115 600.371 753.055 538.401 845.964 528.354V567.838C845.893 567.838 845.844 567.817 845.786 567.817C797.022 561.965 758.929 607.515 758.929 607.515C758.929 607.515 780.277 684.206 845.964 706.275ZM845.964 377.551V445.729C850.447 445.382 854.93 445.094 859.438 444.94C1033.07 439.089 1146.2 587.342 1146.2 587.342C1146.2 587.342 1016.26 745.339 880.893 745.339C868.487 745.339 856.872 744.188 845.964 742.258V784.417C855.292 785.602 864.964 786.298 875.057 786.298C1001.03 786.298 1092.12 721.965 1180.33 645.824C1194.96 657.537 1254.83 686.029 1267.14 698.506C1183.27 768.724 987.804 825.328 876.987 825.328C866.305 825.328 856.047 824.681 845.964 823.708V882.947H1324.76V377.551H845.964ZM845.964 528.354V482.697C850.401 482.387 854.872 482.147 859.438 482.003C984.293 478.081 1066.21 589.297 1066.21 589.297C1066.21 589.297 977.736 712.173 882.873 712.173C869.221 712.173 856.98 709.979 845.964 706.275V567.838C894.57 573.711 904.353 595.182 933.575 643.897L998.568 589.091C998.568 589.091 951.125 526.869 871.148 526.869C862.448 526.869 854.129 527.48 845.964 528.354Z" fill="white" fill-opacity="0.7"/>
</g>
<defs>
<clipPath id="clip0_2337_16197">
<rect width="1078.56" height="795.565" fill="white" transform="translate(494.719 376.758)"/>
</clipPath>
</defs>
</svg>
